Coordinates
version=1
nRows=12
nColumns=24
inDegrees=yes

Units are S.I. units (second, meters, Newtons, ...)
Angles are in degrees.

endheader
time	pelvis_tilt	pelvis_list	pelvis_rotation	pelvis_tx	pelvis_ty	pelvis_tz	hip_flexion_r	hip_adduction_r	hip_rotation_r	knee_angle_r	ankle_angle_r	subtalar_angle_r	mtp_angle_r	hip_flexion_l	hip_adduction_l	hip_rotation_l	knee_angle_l	ankle_angle_l	subtalar_angle_l	mtp_angle_l	lumbar_extension	lumbar_bending	lumbar_rotation
      2.37500000	     15.66608058	     -4.55455068	      3.52458303	      0.97658776	      0.91772847	      0.31167252	     12.42111627	      6.39767768	     -2.70957894	    -29.80880680	     13.40179828	      0.34459376	     33.56469206	    -18.88176648	     -7.10881797	     -3.78361191	    -52.32639538	     10.03193976	      5.92011892	     57.46872252	    -30.10649112	      9.03949803	      1.07013438
      2.38000000	     15.31005907	     -4.89028673	      3.66632432	      0.98267976	      0.91744373	      0.31197483	     12.51255317	      6.90820943	     -2.58994132	    -29.95330698	     13.70952761	      0.01703981	     31.95213429	    -17.31128033	     -7.47118546	     -3.25947897	    -54.58034318	      9.90401325	      5.25953589	     52.91182274	    -29.75695957	      9.49311572	      1.16532203
      2.38500000	     14.97113585	     -5.23679726	      3.83836601	      0.98860514	      0.91720480	      0.31228017	     12.56380682	      7.44497546	     -2.37965086	    -30.02060309	     14.07714081	     -0.42337285	     31.27202355	    -15.71444286	     -7.82224773	     -2.68228147	    -56.81485365	     10.06237234	      4.48369781	     50.29950464	    -29.42954611	      9.96575917	      1.18279170
      2.39000000	     14.69537642	     -5.57401473	      4.03873081	      0.99463964	      0.91723710	      0.31249313	     12.45827298	      7.96445450	     -2.19426905	    -29.94765472	     14.42856566	     -1.02330807	     31.08497785	    -14.20906408	     -8.14310739	     -2.09652284	    -58.87427877	     10.48687980	      3.77710367	     49.91231757	    -29.14598131	     10.44401519	      1.16964360
      2.39500000	     14.46334913	     -5.82278197	      4.23114551	      1.00053088	      0.91746097	      0.31263749	     12.32974900	      8.36470831	     -2.03513852	    -29.93468918	     14.82716998	     -1.53988081	     30.13549786	    -12.75452394	     -8.32498389	     -1.53120698	    -60.80768950	     11.05399950	      2.88367427	     48.33480138	    -28.92033573	     10.83400704	      1.13128837
      2.40000000	     14.34729451	     -6.08889534	      4.49252402	      1.00646069	      0.91797616	      0.31272905	     12.02004244	      8.76778046	     -1.93134324	    -29.81218592	     15.07060500	     -2.12426111	     29.73787963	    -11.44547608	     -8.56149427	     -0.94064256	    -62.56572763	     11.49309004	      2.26470039	     48.51141068	    -28.81922149	     11.26294385	      1.06372644
      2.40500000	     14.21317586	     -6.27552859	      4.71795001	      1.01244025	      0.91856321	      0.31286160	     11.74096648	      9.05869317	     -1.87375362	    -29.76238396	     15.52985749	     -2.34348796	     27.86706762	    -10.13105832	     -8.70984628	     -0.45626182	    -64.20275274	     11.59511685	      1.39832036	     48.54387482	    -28.69424652	     11.58633311	      0.95294343
      2.41000000	     14.10571599	     -6.52850699	      4.90276423	      1.01828954	      0.91930646	      0.31303623	     11.40942585	      9.41420476	     -1.83053987	    -29.60569382	     15.57323891	     -2.57977879	     27.19812790	     -8.82842657	     -8.95754090	     -0.08335196	    -65.75033357	     11.77161929	      0.54407297	     48.16123043	    -28.60046686	     11.97167082	      0.95332413
      2.41500000	     14.10446258	     -6.65178696	      5.12593423	      1.02426529	      0.92031125	      0.31316026	     10.93744116	      9.60713996	     -1.89822817	    -29.50937591	     15.97798523	     -2.17623396	     24.46805461	     -7.67468244	     -9.07170766	      0.32365830	    -67.12859041	     11.88625577	     -0.26776266	     47.82039547	    -28.61404277	     12.22774283	      0.86874545
      2.42000000	     14.15141299	     -6.81996698	      5.38884165	      1.03014673	      0.92140888	      0.31342641	     10.36094249	      9.87900500	     -1.96141439	    -29.24048117	     15.94670663	     -1.93529906	     24.25590241	     -6.54435474	     -9.28383450	      0.71789718	    -68.43799881	     12.09811057	     -1.02208024	     47.66099929	    -28.69665947	     12.51929042	      0.80484826
      2.42500000	     13.99747047	     -6.89777249	      5.57437511	      1.03586107	      0.92223121	      0.31359622	     10.04795573	     10.00528134	     -2.02571222	    -29.06020345	     16.33112161	     -1.46442763	     23.50617520	     -5.15695347	     -9.34405466	      1.07373314	    -69.73879073	     12.32428324	     -1.53736193	     46.98385749	    -28.57175561	     12.69076563	      0.74710870
      2.43000000	     13.93998045	     -6.91720526	      5.82172533	      1.04156342	      0.92327781	      0.31352285	      9.59065210	     10.03738819	     -2.24561039	    -28.81807025	     16.78645597	     -1.15706847	     23.60522140	     -3.87921672	     -9.33146097	      1.44215752	    -70.90853678	     12.42053807	     -1.90323299	     46.95657247	    -28.53171473	     12.85230216	      0.55896828
